# This file uses centimeters as units for non-parametric coordinates.

mtllib DragonWall1.mtl
g default
v 31.479097 0.032439 -6.902821
v -31.479097 0.032439 -6.902821
v 31.479097 37.811227 -7.156591
v -31.479097 37.811227 -7.156591
v 31.479097 37.755655 4.670846
v -31.479097 37.765894 2.489812
v 33.071286 -0.014894 3.168986
v -31.479097 -0.027298 5.808684
v 0.000000 18.856953 6.775930
v 0.000000 37.743745 6.815244
v -0.000000 -0.032441 6.902821
v 31.479097 18.856953 6.775930
v 31.479097 19.806234 -7.035645
v -31.479097 19.806234 -7.035645
v -33.219027 18.856953 6.775930
v 15.739548 37.746344 6.649046
v 15.739548 28.301650 6.712488
v 15.739548 9.412260 6.839373
v 15.739548 -0.016573 3.526865
v 15.739548 18.854960 8.669850
v -15.739548 37.744744 6.751334
v -15.739548 28.294204 8.320270
v -15.739548 18.850288 7.202108
v -15.739548 9.405386 7.278817
v -15.739548 -0.022680 6.278613
v 33.762048 28.317519 3.336535
v 0.000000 28.303989 9.058642
v -31.479097 28.301650 6.712488
v -31.479097 9.415253 6.202581
v 0.000000 9.409420 9.521046
v 32.843955 9.428125 3.463421
v -7.869774 23.581444 7.644574
v 7.869774 23.573183 9.630958
v 7.869774 14.131984 8.590231
v -7.869774 14.108179 8.497199
v -23.609324 4.689909 6.871096
v -23.609324 14.127120 9.157310
v -23.609324 23.559216 8.028686
v -23.609324 33.005188 8.902707
v -7.869774 33.026725 6.506093
v 7.869774 33.018276 7.046262
v 23.609324 33.028606 6.385878
v 23.609324 23.583752 6.460023
v 23.609324 14.134605 6.807655
v 23.609324 4.714278 5.313189
v 7.869774 4.689909 6.871096
v -7.869774 4.679063 9.179434
v 34.217941 19.089080 3.398532
v -34.325875 33.612990 -1.033724
v -31.479097 28.808740 -7.096119
v -31.479097 23.952114 -0.326363
v -31.479097 14.375229 -0.116500
v -31.479097 9.919341 -6.969232
v -33.938226 5.088499 0.159210
v 34.829148 32.894605 -1.722389
v 31.479097 28.808740 -7.096119
v 31.479097 24.009146 -1.913821
v 32.610234 14.557205 -1.725438
v 31.479097 9.919341 -6.969232
v 33.671430 5.250531 -1.145710
v 7.869774 37.746344 6.649046
v 7.869774 28.272630 9.815706
v 7.869774 18.875384 6.480806
v 7.869774 9.403860 8.626516
v 7.869774 -0.024507 5.214843
v 23.261588 37.750794 5.703650
v 24.750799 28.322892 4.173673
v 23.609324 18.851017 8.038712
v 24.291751 9.425791 4.793524
v 24.405418 -0.015655 3.342998
v -7.857922 37.746344 6.649046
v -7.869774 28.316095 7.602681
v -7.869774 18.846561 7.440290
v -7.869774 9.397081 9.059896
v -7.869774 -0.032441 6.902821
v -23.609324 -0.029871 6.355752
v -23.609324 9.412749 6.585387
v -24.479289 18.828812 8.575101
v -23.609324 28.268887 9.373000
v -23.609324 37.756119 4.569429
v -31.479097 33.033772 4.601150
v -15.739548 33.017513 7.661214
v 0.000000 33.011427 8.732246
v 15.739548 33.023997 6.680767
v 32.620573 33.036587 4.003690
v 32.620573 23.587235 5.056233
v 15.739548 23.576169 7.827765
v 0.000000 23.575834 8.213789
v -15.739548 23.575492 7.553615
v -32.349062 23.579301 6.744209
v -32.349062 14.136103 6.489256
v -15.739548 14.117970 7.871304
v 0.000000 14.129481 8.385483
v 15.739548 14.131662 7.879160
v 32.161526 14.142540 5.119675
v 32.957620 4.706616 3.316203
v 15.739548 4.697844 5.183119
v 0.000000 4.685021 8.433733
v -15.739548 4.708207 5.701237
v -31.479097 4.693977 6.005632
vt 0.003508 0.474197
vt 0.003720 0.304675
vt 0.173029 0.474409
vt 0.173241 0.304887
vt 0.190029 0.096736
vt 0.173010 0.823395
vt 0.002961 0.827333
vt 0.991265 0.897972
vt 0.002961 0.996854
vt 0.172483 0.996854
vt 0.003932 0.135154
vt 0.173453 0.135366
vt 0.003296 0.643718
vt 0.172818 0.643930
vt 0.590647 0.497354
vt 0.590647 0.096736
vt 0.590647 0.897972
vt 0.088057 0.643824
vt 0.190029 0.497354
vt 0.092237 0.474308
vt 0.092449 0.304786
vt 0.991265 0.497354
vt 0.088693 0.135260
vt 0.390338 0.096736
vt 0.390338 0.297045
vt 0.390338 0.697663
vt 0.390338 0.897972
vt 0.390338 0.497354
vt 0.790956 0.096736
vt 0.790956 0.297045
vt 0.790956 0.497354
vt 0.790956 0.697663
vt 0.790956 0.897972
vt 0.130437 0.643877
vt 0.190029 0.297045
vt 0.590647 0.297045
vt 0.991265 0.297045
vt 0.131073 0.135313
vt 0.991265 0.697663
vt 0.046312 0.135207
vt 0.590647 0.697663
vt 0.045677 0.643771
vt 0.190029 0.697663
vt 0.690802 0.397199
vt 0.490493 0.397199
vt 0.490493 0.597508
vt 0.690802 0.597508
vt 0.891111 0.797817
vt 0.891111 0.597508
vt 0.891111 0.397199
vt 0.891111 0.196890
vt 0.690802 0.196890
vt 0.490493 0.196890
vt 0.290184 0.196890
vt 0.290184 0.397199
vt 0.290184 0.597508
vt 0.290184 0.797817
vt 0.490493 0.797817
vt 0.690802 0.797817
vt 0.089079 0.602372
vt 0.154625 0.230024
vt 0.132845 0.304837
vt 0.111298 0.222081
vt 0.068335 0.216153
vt 0.048085 0.304731
vt 0.026672 0.213355
vt 0.150972 0.562173
vt 0.132633 0.474358
vt 0.111101 0.558042
vt 0.068688 0.560019
vt 0.047873 0.474252
vt 0.026927 0.568374
vt 0.130103 0.827333
vt 0.172483 0.827333
vt 0.045342 0.827333
vt 0.087722 0.827333
vt 0.190029 0.897972
vt 0.130629 0.823395
vt 0.991265 0.096736
vt 0.045869 0.823395
vt 0.088249 0.823395
vt 0.003488 0.823395
vt 0.003488 0.653873
vt 0.173010 0.653873
vt 0.490493 0.096736
vt 0.067059 0.823395
vt 0.490493 0.297045
vt 0.490493 0.497354
vt 0.490493 0.697663
vt 0.066532 0.827333
vt 0.490493 0.897972
vt 0.294609 0.096736
vt 0.025615 0.823395
vt 0.290184 0.297045
vt 0.290184 0.497354
vt 0.290184 0.697663
vt 0.024152 0.827333
vt 0.290184 0.897972
vt 0.690651 0.096736
vt 0.109407 0.823395
vt 0.690802 0.297045
vt 0.690802 0.497354
vt 0.690802 0.697663
vt 0.108912 0.827333
vt 0.690802 0.897972
vt 0.151293 0.827333
vt 0.891111 0.897972
vt 0.891111 0.697663
vt 0.891111 0.497354
vt 0.891111 0.297045
vt 0.891111 0.096736
vt 0.151820 0.823395
vt 0.991265 0.196890
vt 0.152263 0.135340
vt 0.790956 0.196890
vt 0.590647 0.196890
vt 0.390338 0.196890
vt 0.151627 0.643904
vt 0.190029 0.196890
vt 0.109247 0.643851
vt 0.190029 0.397199
vt 0.390338 0.397199
vt 0.590647 0.397199
vt 0.790956 0.397199
vt 0.991265 0.397199
vt 0.109883 0.135287
vt 0.991265 0.597508
vt 0.067502 0.135234
vt 0.790956 0.597508
vt 0.590647 0.597508
vt 0.390338 0.597508
vt 0.066867 0.643798
vt 0.190029 0.597508
vt 0.024486 0.643745
vt 0.190029 0.797817
vt 0.390338 0.797817
vt 0.590647 0.797817
vt 0.790956 0.797817
vt 0.991265 0.797817
vt 0.025122 0.135181
vn 0.020668 -0.006359 -0.999766
vn -0.027113 -0.006730 -0.999610
vn -0.029610 -0.008886 -0.999522
vn -0.018928 0.582161 -0.812853
vn 0.018016 0.582415 -0.812692
vn 0.023788 -0.008855 -0.999678
vn -0.035951 0.998946 0.028539
vn -0.005927 0.999621 0.026889
vn -0.001724 0.998900 0.046871
vn -0.000099 0.999594 0.028507
vn -0.001066 0.999450 0.033146
vn 0.000239 0.999616 0.027720
vn 0.001383 0.999481 0.032180
vn 0.002838 0.999623 0.027315
vn 0.023608 0.999075 0.035929
vn 0.321404 0.009046 0.946899
vn 0.110315 0.035313 0.993269
vn 0.162658 -0.287097 0.943990
vn 0.033801 -0.998996 0.029409
vn 0.000533 -0.999771 0.021368
vn 0.002117 -0.999772 0.021246
vn 0.005055 -0.999808 0.018948
vn 0.004850 -0.999488 0.031631
vn -0.001233 -0.999714 0.023866
vn -0.005046 -0.999505 0.031049
vn -0.000854 -0.999738 0.022885
vn -0.035927 -0.998989 0.027020
vn -0.024015 -0.532076 -0.846356
vn 0.019313 -0.540765 -0.840952
vn -0.991482 -0.122312 -0.044749
vn -0.897928 0.012500 0.439965
vn -0.894575 0.167584 0.414309
vn -0.801506 0.141204 0.581076
vn 0.989720 0.036899 -0.138174
vn 0.165553 -0.113456 0.979653
vn -0.058512 0.164315 0.984671
vn 0.042469 0.059133 0.997346
vn 0.045935 0.008850 0.998905
vn 0.106547 -0.157211 0.981801
vn -0.026154 -0.085747 0.995974
vn -0.103022 0.084266 0.991103
vn -0.049959 0.130769 0.990153
vn -0.136659 0.069647 0.988167
vn 0.049676 -0.020355 0.998558
vn 0.991902 -0.032619 0.122745
vn 0.983991 0.037132 -0.174309
vn -0.030035 -0.005291 -0.999535
vn 0.024103 -0.006156 -0.999691
vn -0.994879 0.090637 -0.044724
vn -0.832236 -0.103331 0.544707
vn -0.900561 -0.189709 0.391152
vn 0.205618 0.141269 0.968382
vn 0.114354 0.198929 0.973319
vn 0.033116 -0.190324 0.981163
vn 0.015462 0.158566 0.987227
vn 0.110222 -0.188450 0.975878
vn 0.014253 -0.046187 0.998831
vn 0.156558 -0.170027 0.972924
vn 0.161772 -0.255237 0.953249
vn 0.166367 0.319661 0.932812
vn 0.194003 0.199631 0.960474
vn 0.024099 -0.115882 0.992971
vn -0.143572 0.288295 0.946717
vn -0.038624 0.118202 0.992238
vn -0.066326 -0.069376 0.995383
vn -0.037925 -0.104006 0.993853
vn -0.013212 -0.055146 0.998391
vn 0.716275 0.075177 0.693757
vn -0.030135 0.181445 0.982939
vn 0.128242 0.267820 0.954896
vn -0.041887 0.145090 0.988531
vn -0.711577 0.286281 0.641640
vn -0.701297 -0.029712 0.712249
vn 0.139225 -0.261755 0.955040
vn -0.104466 -0.180682 0.977978
vn 0.189812 -0.320573 0.928011
vn 0.712014 -0.004752 0.702150
vn 0.508499 -0.218956 0.832759
vn 0.476244 0.196654 0.857041
vn -0.001261 -0.032857 0.999459
vn 0.028390 0.094182 0.995150
vn -0.123244 -0.237082 0.963641
vn -0.076397 -0.099868 0.992063
vn -0.006115 0.280804 0.959746
vn -0.112554 -0.075206 0.990795
vn -0.064545 -0.230261 0.970986
vn -0.081762 -0.070291 0.994170
vn 0.148438 0.162087 0.975548
vn 0.041915 0.006711 0.999099
vn 0.895551 0.046444 0.442529
vn 0.142393 0.007242 0.989784
vn 0.852500 -0.090421 0.514847
vn 0.178792 -0.150608 0.972291
vn 0.093487 -0.330005 0.939338
vn 0.990864 -0.012272 -0.134309
vn 0.965078 -0.124817 -0.230316
vn -0.998266 -0.058861 -0.000783
vn -0.999945 0.007754 0.007012
vn 0.100111 -0.010887 0.994917
vn -0.125087 -0.227456 0.965721
s 1
g pCube1
usemtl lambert2SG
f 13/20/1 14/21/2 50/62/3 4/4/4 3/3/5 56/68/6
f 3/83/5 4/84/4 6/6/7 80/112/8 21/78/9 71/100/10 10/81/11 61/86/12 16/80/13 66/93/14 5/82/15
f 12/19/16 68/95/17 44/56/18
f 7/7/19 70/97/20 19/75/21 65/90/22 11/76/23 75/104/24 25/73/25 76/106/26 8/74/27 2/10/28 1/9/29
f 51/63/30 15/23/31 90/126/32 28/38/33
f 5/14/15 55/67/34 3/3/5
f 5/5/15 66/92/14 42/54/35
f 35/47/36 23/31/37 92/129/38
f 7/77/19 45/57/39 70/98/20
f 32/44/40 27/36/41 72/101/42
f 35/47/36 74/103/43 30/41/44
f 48/60/45 58/70/46 13/20/1
f 1/1/29 2/2/28 53/65/47 14/21/2 13/20/1 59/71/48
f 15/23/31 52/64/49 29/40/50 91/128/51
f 17/25/52 62/87/53 33/45/54
f 34/46/55 94/131/56 20/28/57
f 34/46/55 64/89/58 18/26/59
f 12/19/16 43/55/60 68/95/17
f 33/45/54 20/28/57 87/122/61
f 23/31/37 32/44/40 89/124/62
f 39/51/63 80/111/8 6/79/7
f 78/109/64 38/50/65 15/22/31
f 37/49/66 78/109/64 15/22/31
f 76/107/26 36/48/67 8/8/27
f 5/5/15 42/54/35 85/119/68
f 83/116/69 41/53/70 10/16/11
f 40/52/71 83/116/69 10/16/11
f 81/113/72 39/51/63 6/79/7
f 36/48/67 100/139/73 8/8/27
f 11/17/23 98/137/74 47/59/75
f 11/17/23 46/58/76 98/137/74
f 96/135/77 45/57/39 7/77/19
f 19/27/21 46/58/76 65/91/22
f 12/19/16 44/56/18 95/133/78
f 86/121/79 43/55/60 12/19/16
f 41/53/70 16/24/13 61/85/12
f 71/99/10 40/52/71 10/16/11
f 15/22/31 38/50/65 90/125/32
f 91/127/51 37/49/66 15/22/31
f 11/17/23 47/59/75 75/105/24
f 9/15/80 32/44/40 73/102/81
f 9/15/80 88/123/82 32/44/40
f 33/45/54 88/123/82 9/15/80
f 33/45/54 63/88/83 20/28/57
f 34/46/55 20/28/57 63/88/83
f 93/130/84 34/46/55 9/15/80
f 35/47/36 93/130/84 9/15/80
f 9/15/80 73/102/81 35/47/36
f 25/33/25 99/138/85 36/48/67
f 36/48/67 77/108/86 29/39/50
f 77/108/86 37/49/66 29/39/50
f 37/49/66 92/129/38 23/31/37
f 23/31/37 89/124/62 38/50/65
f 28/37/33 38/50/65 79/110/87
f 28/37/33 79/110/87 39/51/63
f 39/51/63 82/115/88 21/29/9
f 82/115/88 40/52/71 21/29/9
f 40/52/71 72/101/42 27/36/41
f 17/25/52 41/53/70 62/87/53
f 41/53/70 84/117/89 16/24/13
f 42/54/35 16/24/13 84/117/89
f 26/35/90 42/54/35 67/94/91
f 26/35/90 67/94/91 43/55/60
f 20/28/57 43/55/60 87/122/61
f 44/56/18 20/28/57 94/131/56
f 31/43/92 44/56/18 69/96/93
f 31/43/92 69/96/93 45/57/39
f 19/27/21 45/57/39 97/136/94
f 19/27/21 97/136/94 46/58/76
f 64/89/58 46/58/76 18/26/59
f 47/59/75 30/41/44 74/103/43
f 25/33/25 47/59/75 99/138/85
f 55/67/34 56/68/6 3/3/5
f 12/18/16 48/60/45 26/34/90 86/120/79
f 31/42/92 48/60/45 12/18/16 95/132/78
f 7/13/19 1/1/29 60/72/95
f 58/70/46 59/71/48 13/20/1
f 57/69/96 48/60/45 13/20/1
f 50/62/3 51/63/30 28/38/33 49/61/97
f 54/66/98 8/11/27 100/140/73 29/40/50
f 53/65/47 54/66/98 29/40/50 52/64/49
f 6/12/7 49/61/97 28/38/33 81/114/72
f 4/4/4 49/61/97 6/12/7
f 50/62/3 49/61/97 4/4/4
f 14/21/2 51/63/30 50/62/3
f 14/21/2 15/23/31 51/63/30
f 14/21/2 52/64/49 15/23/31
f 53/65/47 52/64/49 14/21/2
f 2/2/28 54/66/98 53/65/47
f 2/2/28 8/11/27 54/66/98
f 26/34/90 55/67/34 5/14/15 85/118/68
f 56/68/6 57/69/96 13/20/1
f 26/34/90 57/69/96 56/68/6 55/67/34
f 26/34/90 48/60/45 57/69/96
f 31/42/92 58/70/46 48/60/45
f 59/71/48 60/72/95 1/1/29
f 31/42/92 60/72/95 59/71/48 58/70/46
f 7/13/19 60/72/95 31/42/92 96/134/77
f 41/53/70 61/85/12 10/16/11
f 62/87/53 41/53/70 27/36/41
f 33/45/54 62/87/53 27/36/41
f 9/15/80 63/88/83 33/45/54
f 34/46/55 63/88/83 9/15/80
f 30/41/44 64/89/58 34/46/55
f 30/41/44 46/58/76 64/89/58
f 65/91/22 46/58/76 11/17/23
f 42/54/35 66/92/14 16/24/13
f 67/94/91 42/54/35 17/25/52
f 43/55/60 67/94/91 17/25/52
f 68/95/17 43/55/60 20/28/57
f 44/56/18 68/95/17 20/28/57
f 69/96/93 44/56/18 18/26/59
f 45/57/39 69/96/93 18/26/59
f 70/98/20 45/57/39 19/27/21
f 21/29/9 40/52/71 71/99/10
f 22/30/99 72/101/42 40/52/71
f 32/44/40 72/101/42 22/30/99
f 73/102/81 32/44/40 23/31/37
f 35/47/36 73/102/81 23/31/37
f 24/32/100 74/103/43 35/47/36
f 47/59/75 74/103/43 24/32/100
f 75/105/24 47/59/75 25/33/25
f 25/33/25 36/48/67 76/107/26
f 24/32/100 77/108/86 36/48/67
f 24/32/100 37/49/66 77/108/86
f 37/49/66 23/31/37 78/109/64
f 23/31/37 38/50/65 78/109/64
f 79/110/87 38/50/65 22/30/99
f 39/51/63 79/110/87 22/30/99
f 39/51/63 21/29/9 80/111/8
f 28/37/33 39/51/63 81/113/72
f 22/30/99 82/115/88 39/51/63
f 22/30/99 40/52/71 82/115/88
f 40/52/71 27/36/41 83/116/69
f 27/36/41 41/53/70 83/116/69
f 17/25/52 84/117/89 41/53/70
f 42/54/35 84/117/89 17/25/52
f 85/119/68 42/54/35 26/35/90
f 26/35/90 43/55/60 86/121/79
f 87/122/61 43/55/60 17/25/52
f 33/45/54 87/122/61 17/25/52
f 33/45/54 27/36/41 88/123/82
f 32/44/40 88/123/82 27/36/41
f 89/124/62 32/44/40 22/30/99
f 38/50/65 89/124/62 22/30/99
f 90/125/32 38/50/65 28/37/33
f 29/39/50 37/49/66 91/127/51
f 24/32/100 92/129/38 37/49/66
f 35/47/36 92/129/38 24/32/100
f 35/47/36 30/41/44 93/130/84
f 30/41/44 34/46/55 93/130/84
f 18/26/59 94/131/56 34/46/55
f 44/56/18 94/131/56 18/26/59
f 95/133/78 44/56/18 31/43/92
f 31/43/92 45/57/39 96/135/77
f 97/136/94 45/57/39 18/26/59
f 46/58/76 97/136/94 18/26/59
f 98/137/74 46/58/76 30/41/44
f 47/59/75 98/137/74 30/41/44
f 99/138/85 47/59/75 24/32/100
f 36/48/67 99/138/85 24/32/100
f 36/48/67 29/39/50 100/139/73
