# This file uses centimeters as units for non-parametric coordinates.

mtllib Rock9.mtl
g default
v 4.190732 0.000000 -3.044746
v 1.600717 0.000000 -4.926502
v -1.600718 0.000000 -6.073623
v -4.772488 0.000000 -4.191867
v -5.761785 0.000000 0.000000
v -5.225293 0.000000 3.250357
v -2.635278 0.000000 5.676344
v 1.600717 0.000000 5.470732
v 4.939688 0.000000 4.602474
v 5.928985 0.000000 1.557729
v 3.985623 1.474895 -2.895725
v 1.522372 1.474895 -4.685382
v -1.522373 1.474895 -5.832503
v -4.567379 1.474895 -4.042847
v -5.508257 1.474895 0.000000
v -5.020184 1.474895 3.101337
v -2.556933 1.474895 5.435224
v 1.522373 1.474895 5.229612
v 5.322616 1.474895 4.453454
v 6.263494 1.474895 1.557729
v 3.390373 6.509744 -2.463251
v 1.295007 6.804860 -3.985624
v -1.295008 6.343494 -3.985623
v -3.275928 7.483997 -3.932610
v -4.600274 5.639191 0.280045
v -3.620442 5.705560 3.773085
v -0.856116 7.070742 5.339645
v 1.295008 5.972178 3.985623
v 4.445651 7.153885 2.463250
v 5.246009 6.351979 -0.000000
v 2.463251 11.268532 -1.789657
v 0.940878 11.268532 -2.895725
v -1.553225 11.268532 -3.160698
v -3.075597 11.268532 -2.054629
v -3.657091 11.268532 -0.264973
v -2.728052 11.268532 2.339185
v -0.593333 11.268532 3.710227
v 1.494638 14.960294 2.536589
v 2.930491 11.473380 1.789656
v 3.511985 11.473380 0.000000
v 1.295008 20.837601 -0.940878
v 0.494649 20.837598 -1.522373
v -1.106995 20.837598 -1.787346
v -1.907354 20.837598 -1.205851
v -2.213063 20.837598 -0.264973
v -1.907354 20.837598 0.675905
v -0.494649 20.837598 1.522372
v -0.089389 25.104711 1.006061
v 0.710969 25.104711 0.424566
v 1.016679 25.104711 -0.516312
v -0.045158 22.971154 -1.151829
v -1.151226 22.971154 0.370544
vt 0.000000 0.500000
vt 0.100000 0.500000
vt 0.200000 0.500000
vt 0.300000 0.500000
vt 0.400000 0.500000
vt 0.500000 0.500000
vt 0.600000 0.500000
vt 0.700000 0.500000
vt 0.800000 0.500000
vt 0.900000 0.500000
vt 1.000000 0.500000
vt 0.000000 0.600000
vt 0.100000 0.600000
vt 0.200000 0.600000
vt 0.300000 0.600000
vt 0.400000 0.600000
vt 0.500000 0.600000
vt 0.600000 0.600000
vt 0.700000 0.600000
vt 0.800000 0.600000
vt 0.900000 0.600000
vt 1.000000 0.600000
vt 0.000000 0.700000
vt 0.100000 0.700000
vt 0.200000 0.700000
vt 0.300000 0.700000
vt 0.400000 0.700000
vt 0.500000 0.700000
vt 0.600000 0.700000
vt 0.700000 0.700000
vt 0.800000 0.700000
vt 0.900000 0.700000
vt 1.000000 0.700000
vt 0.000000 0.800000
vt 0.100000 0.800000
vt 0.200000 0.800000
vt 0.300000 0.800000
vt 0.400000 0.800000
vt 0.500000 0.800000
vt 0.600000 0.800000
vt 0.700000 0.800000
vt 0.800000 0.800000
vt 0.900000 0.800000
vt 1.000000 0.800000
vt 0.000000 0.900000
vt 0.100000 0.900000
vt 0.200000 0.900000
vt 0.300000 0.900000
vt 0.400000 0.900000
vt 0.500000 0.900000
vt 0.600000 0.900000
vt 0.700000 0.900000
vt 0.800000 0.900000
vt 0.900000 0.900000
vt 1.000000 0.900000
vt 0.550000 0.900000
vt 0.550000 0.900000
vn 0.580084 0.161341 -0.798418
vn 0.580084 0.161341 -0.798418
vn 0.580084 0.161341 -0.798418
vn 0.580084 0.161341 -0.798418
vn 0.340792 0.151683 -0.927822
vn 0.340792 0.151683 -0.927822
vn 0.340792 0.151683 -0.927822
vn 0.340792 0.151683 -0.927822
vn -0.501906 0.160634 -0.849874
vn -0.501906 0.160634 -0.849874
vn -0.501906 0.160634 -0.849874
vn -0.501906 0.160634 -0.849874
vn -0.960944 0.160788 -0.225240
vn -0.960944 0.160788 -0.225240
vn -0.960944 0.160788 -0.225240
vn -0.960944 0.160788 -0.225240
vn -0.974604 0.159475 0.157209
vn -0.974604 0.159475 0.157209
vn -0.974604 0.159475 0.157209
vn -0.974604 0.159475 0.157209
vn -0.676818 0.160071 0.718536
vn -0.676818 0.160071 0.718536
vn -0.676818 0.160071 0.718536
vn -0.676818 0.160071 0.718536
vn 0.048748 0.161149 0.985725
vn 0.048748 0.161149 0.985725
vn 0.048748 0.161149 0.985725
vn 0.048748 0.161149 0.985725
vn 0.223215 0.105123 0.969084
vn 0.223215 0.105123 0.969084
vn 0.223215 0.105123 0.969084
vn 0.223215 0.105123 0.969084
vn 0.929675 -0.210852 0.302070
vn 0.929675 -0.210852 0.302070
vn 0.929675 -0.210852 0.302070
vn 0.929675 -0.210852 0.302070
vn 0.913963 -0.019617 -0.405324
vn 0.913962 -0.019617 -0.405324
vn 0.913962 -0.019617 -0.405324
vn 0.913962 -0.019617 -0.405324
vn 0.588154 0.133808 -0.797603
vn 0.588154 0.133808 -0.797603
vn 0.588154 0.133808 -0.797603
vn 0.588154 0.133808 -0.797603
vn 0.174938 0.238531 -0.955248
vn 0.174938 0.238531 -0.955248
vn 0.174938 0.238531 -0.955248
vn 0.174938 0.238531 -0.955248
vn -0.294495 0.208902 -0.932541
vn -0.294495 0.208902 -0.932541
vn -0.294495 0.208902 -0.932541
vn -0.294495 0.208902 -0.932541
vn -0.953125 0.214257 -0.213649
vn -0.953125 0.214257 -0.213649
vn -0.953125 0.214257 -0.213649
vn -0.953125 0.214257 -0.213649
vn -0.948770 0.237137 0.208809
vn -0.948770 0.237137 0.208809
vn -0.948770 0.237137 0.208809
vn -0.948770 0.237137 0.208809
vn -0.616041 0.149026 0.773489
vn -0.616041 0.149026 0.773489
vn -0.616041 0.149026 0.773489
vn -0.616041 0.149027 0.773489
vn 0.256783 0.090224 0.962248
vn 0.256783 0.090224 0.962248
vn 0.256783 0.090224 0.962248
vn 0.256783 0.090224 0.962248
vn 0.248552 0.317778 0.915008
vn 0.248552 0.317778 0.915008
vn 0.248552 0.317778 0.915008
vn 0.248552 0.317778 0.915008
vn 0.930050 0.255623 0.263941
vn 0.930050 0.255623 0.263941
vn 0.930050 0.255623 0.263941
vn 0.930050 0.255623 0.263941
vn 0.856361 0.081447 -0.509914
vn 0.856361 0.081447 -0.509914
vn 0.856361 0.081447 -0.509914
vn 0.856361 0.081447 -0.509914
vn 0.584238 0.229993 -0.778312
vn 0.584238 0.229993 -0.778312
vn 0.584238 0.229993 -0.778312
vn 0.584238 0.229993 -0.778312
vn 0.032707 0.201776 -0.978885
vn 0.032707 0.201776 -0.978885
vn 0.032707 0.201776 -0.978885
vn 0.032707 0.201776 -0.978885
vn -0.954536 0.152238 -0.256292
vn -0.954536 0.152238 -0.256292
vn -0.954536 0.152238 -0.256292
vn -0.954536 0.152238 -0.256292
vn -0.934758 0.204653 0.290420
vn -0.934758 0.204652 0.290420
vn -0.934758 0.204652 0.290420
vn -0.934758 0.204653 0.290420
vn -0.550940 0.308557 0.775408
vn -0.550940 0.308557 0.775408
vn -0.550940 0.308557 0.775408
vn -0.550940 0.308557 0.775408
vn 0.412512 0.193363 0.890194
vn 0.412512 0.193363 0.890194
vn 0.412512 0.193363 0.890194
vn 0.412512 0.193363 0.890194
vn 0.508764 0.184425 0.840920
vn 0.508764 0.184425 0.840920
vn 0.508764 0.184425 0.840920
vn 0.508764 0.184425 0.840920
vn 0.913933 0.331270 0.234492
vn 0.913933 0.331270 0.234492
vn 0.913933 0.331270 0.234492
vn 0.913933 0.331270 0.234492
vn 0.797805 0.252217 -0.547625
vn 0.797805 0.252217 -0.547625
vn 0.797805 0.252217 -0.547625
vn 0.797805 0.252217 -0.547625
vn 0.581824 0.142064 -0.800811
vn 0.581824 0.142064 -0.800811
vn 0.581824 0.142064 -0.800811
vn 0.581824 0.142064 -0.800812
vn 0.127039 0.140913 -0.981837
vn 0.127039 0.140913 -0.981837
vn 0.127039 0.140913 -0.981837
vn 0.127039 0.140913 -0.981837
vn -0.581824 0.142064 -0.800811
vn -0.581824 0.142064 -0.800811
vn -0.581824 0.142064 -0.800811
vn -0.581824 0.142064 -0.800811
vn -0.941410 0.142064 -0.305883
vn -0.941410 0.142064 -0.305883
vn -0.941410 0.142064 -0.305883
vn -0.941410 0.142064 -0.305883
vn -0.935193 0.138976 0.325731
vn -0.935193 0.138976 0.325731
vn -0.935193 0.138976 0.325731
vn -0.935193 0.138976 0.325731
vn -0.520156 0.192432 0.832111
vn -0.520155 0.192432 0.832111
vn -0.520156 0.192432 0.832111
vn -0.520155 0.192432 0.832111
vn 0.059807 0.189371 0.980083
vn 0.059807 0.189371 0.980083
vn 0.059807 0.189371 0.980083
vn 0.059807 0.189371 0.980083
vn 0.708333 0.195907 0.678148
vn 0.708333 0.195907 0.678148
vn 0.708333 0.195907 0.678148
vn 0.708333 0.195907 0.678148
vn 0.935053 0.182675 0.303817
vn 0.935053 0.182675 0.303817
vn 0.935053 0.182675 0.303817
vn 0.935053 0.182675 0.303817
vn 0.816567 0.136979 -0.560762
vn 0.816568 0.136979 -0.560762
vn 0.816568 0.136979 -0.560762
vn 0.816568 0.136979 -0.560762
vn -0.214926 0.288163 -0.933150
vn -0.214926 0.288163 -0.933150
vn -0.214926 0.288163 -0.933150
vn -0.214926 0.288163 -0.933150
vn -0.888654 0.356262 0.288742
vn -0.888654 0.356262 0.288742
vn -0.888654 0.356262 0.288742
vn 0.401789 0.163289 -0.901056
vn 0.401789 0.163289 -0.901056
vn 0.401789 0.163289 -0.901056
vn 0.401789 0.163289 -0.901056
vn -0.678514 0.544611 -0.492969
vn -0.678514 0.544611 -0.492969
vn -0.678514 0.544611 -0.492969
vn -0.678514 0.544611 -0.492969
vn -0.678514 0.544611 -0.492969
vn 0.159650 0.207991 -0.965014
vn 0.159650 0.207991 -0.965014
vn 0.159650 0.207991 -0.965014
vn -0.629332 0.210234 0.748160
vn -0.629332 0.210234 0.748160
vn -0.629332 0.210234 0.748160
vn -0.629332 0.210234 0.748160
vn -0.678514 0.544611 -0.492968
vn -0.678514 0.544611 -0.492968
vn -0.678514 0.544611 -0.492968
vn -0.678514 0.544611 -0.492968
vn -0.678514 0.544611 -0.492968
vn 0.000000 -1.000000 0.000000
vn 0.000000 -1.000000 0.000000
vn 0.000000 -1.000000 0.000000
vn 0.000000 -1.000000 0.000000
vn 0.000000 -1.000000 0.000000
vn 0.000000 -1.000000 0.000000
vn 0.000000 -1.000000 0.000000
vn 0.000000 -1.000000 0.000000
vn 0.000000 -1.000000 0.000000
vn 0.000000 -1.000000 0.000000
s off
g pasted__pasted__pSphere1 pasted__pasted__pSphere1SmoothProxyGroup pasted__group group3
usemtl lambert6SG
f 1/1/1 2/2/2 12/13/3 11/12/4
f 2/2/5 3/3/6 13/14/7 12/13/8
f 3/3/9 4/4/10 14/15/11 13/14/12
f 4/4/13 5/5/14 15/16/15 14/15/16
f 5/5/17 6/6/18 16/17/19 15/16/20
f 6/6/21 7/7/22 17/18/23 16/17/24
f 7/7/25 8/8/26 18/19/27 17/18/28
f 8/8/29 9/9/30 19/20/31 18/19/32
f 9/9/33 10/10/34 20/21/35 19/20/36
f 10/10/37 1/11/38 11/22/39 20/21/40
f 11/12/41 12/13/42 22/24/43 21/23/44
f 12/13/45 13/14/46 23/25/47 22/24/48
f 13/14/49 14/15/50 24/26/51 23/25/52
f 14/15/53 15/16/54 25/27/55 24/26/56
f 15/16/57 16/17/58 26/28/59 25/27/60
f 16/17/61 17/18/62 27/29/63 26/28/64
f 17/18/65 18/19/66 28/30/67 27/29/68
f 18/19/69 19/20/70 29/31/71 28/30/72
f 19/20/73 20/21/74 30/32/75 29/31/76
f 20/21/77 11/22/78 21/33/79 30/32/80
f 21/23/81 22/24/82 32/35/83 31/34/84
f 22/24/85 23/25/86 33/36/87 32/35/88
f 24/26/89 25/27/90 35/38/91 34/37/92
f 25/27/93 26/28/94 36/39/95 35/38/96
f 26/28/97 27/29/98 37/40/99 36/39/100
f 27/29/101 28/30/102 38/41/103 37/40/104
f 28/30/105 29/31/106 39/42/107 38/41/108
f 29/31/109 30/32/110 40/43/111 39/42/112
f 30/32/113 21/33/114 31/44/115 40/43/116
f 31/34/117 32/35/118 42/46/119 41/45/120
f 32/35/121 33/36/122 43/47/123 42/46/124
f 33/36/125 34/37/126 44/48/127 43/47/128
f 34/37/129 35/38/130 45/49/131 44/48/132
f 35/38/133 36/39/134 46/50/135 45/49/136
f 36/39/137 37/40/138 47/51/139 46/50/140
f 37/40/141 38/41/142 48/52/143 47/51/144
f 38/41/145 39/42/146 49/53/147 48/52/148
f 39/42/149 40/43/150 50/54/151 49/53/152
f 40/43/153 31/44/154 41/55/155 50/54/156
f 34/37/157 33/36/158 23/25/159 24/26/160
f 46/50/161 52/57/162 45/49/163
f 42/46/164 51/56/165 50/54/166 41/45/167
f 50/54/168 51/56/169 52/57/170 48/52/171 49/53/172
f 42/46/173 43/47/174 51/56/175
f 48/52/176 52/57/177 46/50/178 47/51/179
f 52/57/180 51/56/181 43/47/182 44/48/183 45/49/184
f 5/5/185 4/4/186 3/3/187 2/2/188 1/11/189 10/10/190 9/9/191 8/8/192 7/7/193 6/6/194
