# This file uses centimeters as units for non-parametric coordinates.

mtllib Rock10.mtl
g Rock14:default1
v 4.941558 0.000000 -3.356660
v 2.216577 0.000000 -5.336667
v -1.151898 0.000000 -6.543634
v -4.489141 0.000000 -4.563631
v -5.530008 0.000000 -0.153030
v -4.965517 0.000000 3.266693
v -2.240540 0.000000 5.819403
v 2.216577 0.000000 5.603078
v 5.729727 0.000000 4.689539
v 6.770609 0.000000 1.485886
v 4.725860 1.551832 -3.199978
v 2.134023 1.551832 -5.082932
v -1.069599 1.551832 -6.289903
v -4.273440 1.551832 -4.406953
v -5.263417 1.551832 -0.153030
v -4.749804 1.551832 3.110022
v -2.157975 1.551832 5.565672
v 2.134027 1.551832 5.349388
v 6.132498 1.551832 4.532609
v 7.122502 1.551832 1.485886
v 4.609601 2.951764 -3.527630
v 1.894824 2.951764 -4.346659
v -0.830175 2.951764 -4.346659
v -3.034848 2.951764 -2.744829
v -3.877123 2.951764 -0.153030
v -2.669389 2.951764 3.295645
v -0.464708 2.951764 4.897482
v 1.894824 2.951764 5.076090
v 5.736745 3.167297 4.096554
v 7.128675 3.167297 0.549275
v 9.380221 12.995994 -2.142035
v 7.268513 12.995994 -2.523037
v 4.644403 12.995994 -2.801839
v 3.042603 12.995994 -1.638022
v 2.430769 12.995994 0.244891
v 3.408291 12.995994 2.984904
v 5.654229 12.995994 4.427516
v 7.268513 12.995994 4.606150
v 9.888848 16.207621 4.064604
v 11.050520 16.207621 1.225952
v 11.146457 20.527525 -0.466318
v 6.799099 16.705383 -1.078148
v 5.113851 16.705383 -1.356947
v 6.527206 18.970072 -0.745113
v 3.950029 16.705383 0.244891
v 4.271805 16.705383 1.234890
v 8.013615 18.970072 2.125519
v 10.304179 20.527525 2.125519
v 11.146457 20.527525 1.513685
v 11.467955 20.527525 0.523689
v 8.261353 10.640221 -2.467143
v 6.008127 10.640221 -2.950703
v 3.360358 10.640221 -3.164116
v 1.617198 10.640221 -1.897761
v 0.951300 10.640221 0.151621
v 1.982890 10.640221 3.057836
v 4.219123 10.640221 4.537617
v 6.008127 10.640221 4.716229
v 8.914913 10.855755 4.072155
v 10.130692 10.855755 1.067302
v 6.796928 7.556904 -2.892291
v 4.358688 7.556904 -3.510479
v 1.679829 7.556904 -3.638317
v 2.573993 7.556904 2.717865
v 2.340926 7.556904 4.681991
v 4.358688 7.556904 4.860621
v 7.640401 7.772439 4.081931
v 8.926703 7.772439 0.859490
v 5.351103 4.513199 -3.312176
v 2.730303 4.513199 -4.063093
v 0.020861 4.513199 -4.106597
v -2.090257 7.289964 -2.572875
v -1.724568 4.513199 3.247227
v 0.486695 4.513199 4.824448
v 2.730303 4.513199 5.003041
v 6.382096 4.728737 4.091621
v 7.738359 4.728737 0.654387
v -2.122515 7.075274 -2.583402
v -2.928914 7.310737 -0.101862
v 1.191261 11.557831 -0.697826
v 0.930335 11.624486 -2.247872
v -0.377845 11.514683 -3.470086
v -1.184018 11.750146 -0.988564
v 2.387160 15.982284 -0.236283
v 2.834054 15.801111 -3.378349
v 1.181372 11.543352 -0.698484
v 0.543115 12.634959 -3.302434
v -0.228444 12.752694 -0.928192
v 1.083369 11.561172 -0.642263
v 2.116365 13.181708 -2.473666
v 1.227987 11.557164 -0.810892
v 3.411045 12.993238 2.980508
v 5.651475 12.998750 4.431911
v 8.016369 18.967314 2.121123
v 4.269051 16.708139 1.239282
vt 0.747022 0.464579
vt 0.853638 0.464579
vt 0.853638 0.502091
vt 0.750810 0.502091
vt 0.936302 0.464579
vt 0.932515 0.502091
vt 0.853638 0.535931
vt 0.790988 0.535931
vt 0.699160 0.464579
vt 0.705294 0.502091
vt 0.998008 0.464579
vt 0.991875 0.502091
vt 0.937002 0.535931
vt 0.854875 0.641299
vt 0.794890 0.635607
vt 0.795144 0.640797
vt 0.861003 0.721782
vt 0.935832 0.573675
vt 0.923036 0.647250
vt 0.931253 0.721782
vt 0.833441 0.748612
vt 0.773456 0.742920
vt 0.975723 0.535931
vt 0.973957 0.573675
vt 0.970514 0.647250
vt 0.967024 0.721782
vt 0.929491 0.778727
vt 0.863257 0.778727
vt 0.834901 0.772846
vt 0.777509 0.770000
vt 0.964362 0.778727
vt 0.887188 0.868393
vt 0.863257 0.868393
vt 0.851626 0.850914
vt 0.775674 0.846534
vt 0.908717 0.923136
vt 0.839326 0.923136
vt 0.001992 0.001895
vt 0.079433 0.001895
vt 0.079433 0.039407
vt 0.005786 0.039407
vt 0.196490 0.001895
vt 0.192703 0.039407
vt 0.102073 0.078457
vt 0.016326 0.078457
vt 0.244352 0.001895
vt 0.238219 0.039407
vt 0.200623 0.073247
vt 0.099532 0.116201
vt 0.016445 0.116201
vt 0.195415 0.110991
vt 0.094575 0.189775
vt 0.016680 0.189775
vt 0.185265 0.184565
vt 0.089551 0.264307
vt 0.016916 0.264307
vt 0.174988 0.259097
vt 0.085716 0.393676
vt 0.017098 0.393676
vt 0.167129 0.316043
vt 0.102692 0.498100
vt 0.078761 0.498100
vt 0.126623 0.498100
vt 0.063393 0.559036
vt 0.108908 0.559036
vt 0.108908 0.648702
vt 0.084977 0.703446
vt 0.057115 0.502091
vt 0.106654 0.502091
vt 0.035261 0.559036
vt 0.070187 0.648702
vt 0.026503 0.502091
vt 0.163636 0.610527
vt 0.207905 0.649700
vt 0.229774 0.713018
vt 0.153822 0.717397
vt 0.167712 0.610430
vt 0.202447 0.612058
vt 0.210558 0.502091
vt 0.231991 0.609403
vt 0.227939 0.636484
vt 0.144445 0.588265
vt 0.193984 0.588265
vt 0.270374 0.804930
vt 0.214729 0.949340
vt 0.214623 0.949273
vt 0.270481 0.804997
vt 0.424535 0.894663
vt 0.382233 0.804997
vt 0.382339 0.804930
vt 0.424429 0.894729
vt 0.087686 0.784877
vt 0.042170 0.862323
vt 0.001992 0.832383
vt 0.040713 0.779090
vt 0.058510 0.707437
vt 0.040713 0.713219
vt 0.486186 0.806273
vt 0.487074 0.809006
vt 0.483578 0.804930
vt 0.339641 0.812702
vt 0.276989 0.833062
vt 0.291779 0.812702
vt 0.315710 0.804930
vt 0.346380 0.924361
vt 0.276989 0.888431
vt 0.263287 0.549953
vt 0.343957 0.502091
vt 0.425382 0.531267
vt 0.491252 0.579129
vt 0.535465 0.696186
vt 0.510305 0.773627
vt 0.425382 0.795709
vt 0.317642 0.800939
vt 0.251772 0.739233
vt 0.238127 0.656569
vt 0.468468 0.804930
vt 0.468468 0.886355
vt 0.430956 0.884366
vt 0.430956 0.806926
vt 0.312308 0.001895
vt 0.420049 0.001895
vt 0.418053 0.039407
vt 0.314304 0.039407
vt 0.504971 0.001895
vt 0.514707 0.039407
vt 0.412271 0.073247
vt 0.355235 0.073247
vt 0.505141 0.078457
vt 0.432467 0.110991
vt 0.378233 0.110991
vt 0.251653 0.039407
vt 0.301942 0.073247
vt 0.520740 0.116201
vt 0.471829 0.184565
vt 0.423055 0.184565
vt 0.551157 0.189775
vt 0.511701 0.259097
vt 0.468456 0.259097
vt 0.581965 0.264307
vt 0.542167 0.316043
vt 0.503146 0.316043
vt 0.605508 0.393676
vt 0.615548 0.498100
vt 0.560179 0.460452
vt 0.635908 0.498100
vt 0.830989 0.460588
vt 0.768338 0.460588
vt 0.762555 0.426748
vt 0.828179 0.426748
vt 0.782751 0.389004
vt 0.846103 0.389004
vt 0.696685 0.426748
vt 0.717257 0.389004
vt 0.822114 0.315429
vt 0.881052 0.315429
vt 0.739241 0.217105
vt 0.755845 0.240897
vt 0.797981 0.240897
vt 0.757358 0.315429
vt 0.643392 0.426748
vt 0.666225 0.321882
vt 0.665446 0.327072
vt 0.861985 0.240897
vt 0.916451 0.240897
vt 0.892452 0.183952
vt 0.943497 0.183952
vt 0.829020 0.183952
vt 0.881105 0.094286
vt 0.986192 0.001895
vt 0.840368 0.094286
vt 0.874533 0.039543
vt 0.095737 0.721389
vt 0.149894 0.721522
vt 0.207060 0.865798
vt 0.116477 0.811188
vt 0.564521 0.607459
vt 0.663878 0.709773
vt 0.664117 0.710123
vt 0.661509 0.710203
vt 0.693025 0.817074
vt 0.629799 0.739006
vt 0.606700 0.714772
vt 0.541601 0.502091
vt 0.475849 0.859220
vt 0.475849 0.804930
vt 0.475916 0.804997
vt 0.475782 0.859154
vt 0.117761 0.709773
vt 0.130946 0.502091
vt 0.138310 0.687942
vt 0.115043 0.710107
vt 0.117776 0.710123
vt 0.374527 0.804997
vt 0.352998 0.895446
vt 0.353105 0.895513
vt 0.374421 0.804930
vn 0.580093 0.161325 -0.798415
vn 0.580093 0.161325 -0.798415
vn 0.580093 0.161325 -0.798415
vn 0.580093 0.161325 -0.798415
vn 0.340787 0.151731 -0.927816
vn 0.340787 0.151731 -0.927816
vn 0.340787 0.151731 -0.927816
vn 0.340787 0.151731 -0.927816
vn -0.501913 0.160575 -0.849882
vn -0.501913 0.160575 -0.849882
vn -0.501913 0.160575 -0.849882
vn -0.501913 0.160575 -0.849882
vn -0.960961 0.160697 -0.225236
vn -0.960961 0.160697 -0.225236
vn -0.960961 0.160697 -0.225236
vn -0.960961 0.160697 -0.225236
vn -0.974614 0.159392 0.157230
vn -0.974614 0.159392 0.157230
vn -0.974614 0.159392 0.157230
vn -0.974614 0.159392 0.157230
vn -0.676838 0.160059 0.718521
vn -0.676837 0.160059 0.718521
vn -0.676838 0.160059 0.718521
vn -0.676838 0.160059 0.718521
vn 0.048741 0.161157 0.985725
vn 0.048741 0.161157 0.985724
vn 0.048741 0.161157 0.985725
vn 0.048741 0.161157 0.985725
vn 0.223228 0.105179 0.969075
vn 0.223228 0.105179 0.969075
vn 0.223228 0.105179 0.969075
vn 0.223228 0.105179 0.969075
vn 0.929688 -0.210783 0.302077
vn 0.929688 -0.210783 0.302077
vn 0.929688 -0.210783 0.302077
vn 0.929688 -0.210783 0.302077
vn 0.913961 -0.019642 -0.405326
vn 0.913961 -0.019642 -0.405326
vn 0.913961 -0.019642 -0.405326
vn 0.913961 -0.019642 -0.405326
vn 0.445958 0.184438 -0.875845
vn 0.445958 0.184438 -0.875845
vn 0.445958 0.184438 -0.875845
vn 0.445958 0.184438 -0.875845
vn 0.145517 0.684044 -0.714779
vn 0.145517 0.684043 -0.714779
vn 0.145517 0.684044 -0.714779
vn 0.145517 0.684044 -0.714779
vn -0.319574 0.807382 -0.495990
vn -0.319574 0.807382 -0.495990
vn -0.319574 0.807382 -0.495990
vn -0.319574 0.807382 -0.495990
vn -0.663181 0.727107 -0.177500
vn -0.663181 0.727107 -0.177500
vn -0.663181 0.727107 -0.177500
vn -0.663181 0.727107 -0.177500
vn -0.625363 0.763674 0.160386
vn -0.625363 0.763674 0.160386
vn -0.625363 0.763674 0.160386
vn -0.625363 0.763674 0.160386
vn -0.456209 0.707833 0.539302
vn -0.456209 0.707833 0.539302
vn -0.456209 0.707833 0.539302
vn -0.456209 0.707833 0.539302
vn 0.005373 0.316213 0.948673
vn 0.005373 0.316213 0.948673
vn 0.005373 0.316213 0.948673
vn 0.005373 0.316213 0.948673
vn 0.208383 0.265331 0.941369
vn 0.208383 0.265331 0.941369
vn 0.208383 0.265331 0.941369
vn 0.208383 0.265331 0.941369
vn 0.910753 0.249590 0.328989
vn 0.910753 0.249590 0.328989
vn 0.910753 0.249590 0.328989
vn 0.910753 0.249590 0.328989
vn 0.861311 -0.169390 -0.479010
vn 0.861311 -0.169390 -0.479010
vn 0.861311 -0.169390 -0.479010
vn 0.861311 -0.169390 -0.479010
vn 0.193963 0.058511 -0.979262
vn 0.193963 0.058511 -0.979262
vn 0.193963 0.058511 -0.979262
vn 0.193963 0.058511 -0.979262
vn 0.092333 0.115944 -0.988955
vn 0.092333 0.115944 -0.988955
vn 0.092333 0.115944 -0.988955
vn 0.092333 0.115944 -0.988955
vn -0.812090 0.520461 -0.263876
vn -0.812090 0.520461 -0.263876
vn -0.812090 0.520461 -0.263876
vn -0.812090 0.520461 -0.263876
vn -0.815180 0.501341 0.290067
vn -0.815180 0.501341 0.290067
vn -0.815180 0.501341 0.290067
vn -0.815180 0.501341 0.290067
vn -0.513202 0.342157 0.787116
vn -0.513202 0.342157 0.787116
vn -0.513202 0.342157 0.787116
vn -0.513202 0.342158 0.787116
vn -0.103818 0.105609 0.988973
vn -0.103818 0.105609 0.988973
vn -0.103818 0.105609 0.988973
vn -0.103818 0.105609 0.988973
vn 0.242147 -0.055410 0.968656
vn 0.242147 -0.055411 0.968656
vn 0.242147 -0.055411 0.968656
vn 0.242147 -0.055410 0.968656
vn 0.913291 -0.166829 0.371576
vn 0.913291 -0.166829 0.371576
vn 0.913291 -0.166829 0.371575
vn 0.913291 -0.166829 0.371576
vn 0.908139 -0.217763 -0.357580
vn 0.908139 -0.217763 -0.357580
vn 0.908139 -0.217763 -0.357580
vn 0.908139 -0.217763 -0.357580
vn -0.010919 0.268649 -0.963176
vn -0.010919 0.268649 -0.963176
vn -0.010919 0.268649 -0.963176
vn -0.010919 0.268649 -0.963176
vn 0.119702 0.360348 -0.925106
vn 0.119702 0.360348 -0.925106
vn 0.119702 0.360348 -0.925106
vn 0.119702 0.360348 -0.925106
vn -0.672113 0.421426 -0.608822
vn -0.672113 0.421426 -0.608822
vn -0.672113 0.421426 -0.608822
vn -0.672113 0.421426 -0.608822
vn -0.753306 0.434767 -0.493465
vn -0.753306 0.434767 -0.493465
vn -0.753306 0.434767 -0.493465
vn -0.753306 0.434767 -0.493465
vn -0.882496 0.355954 0.307406
vn -0.882496 0.355954 0.307406
vn -0.882496 0.355954 0.307406
vn -0.882496 0.355954 0.307406
vn -0.469028 0.469202 0.748239
vn -0.469028 0.469202 0.748239
vn -0.469028 0.469202 0.748239
vn -0.469028 0.469202 0.748239
vn -0.199289 0.396892 0.895969
vn -0.199289 0.396892 0.895969
vn -0.199289 0.396892 0.895969
vn -0.199289 0.396892 0.895969
vn -0.082817 0.414718 0.906174
vn -0.082817 0.414718 0.906174
vn -0.082817 0.414718 0.906174
vn -0.082817 0.414718 0.906174
vn 0.931544 -0.044725 0.360868
vn 0.931544 -0.044725 0.360868
vn 0.931544 -0.044725 0.360868
vn 0.931544 -0.044725 0.360868
vn 0.936043 -0.146178 -0.320088
vn 0.936043 -0.146178 -0.320088
vn 0.936043 -0.146178 -0.320088
vn 0.936043 -0.146178 -0.320088
vn -0.537039 0.406421 -0.739196
vn -0.537039 0.406421 -0.739196
vn -0.537039 0.406421 -0.739196
vn -0.537039 0.406421 -0.739196
vn -0.559499 0.786314 0.262050
vn -0.559501 0.786314 0.262050
vn -0.559501 0.786313 0.262050
vn -0.559500 0.786314 0.262050
vn 0.228437 0.040013 -0.972736
vn 0.228437 0.040013 -0.972736
vn 0.228437 0.040013 -0.972736
vn 0.228437 0.040013 -0.972736
vn 0.063378 0.131650 -0.989268
vn 0.063378 0.131650 -0.989268
vn 0.063378 0.131650 -0.989268
vn 0.063378 0.131650 -0.989268
vn -0.729418 0.456374 0.509580
vn -0.729418 0.456374 0.509580
vn -0.729418 0.456374 0.509580
vn -0.729418 0.456374 0.509580
vn -0.729418 0.456374 0.509580
vn -0.729418 0.456374 0.509580
vn -0.852950 0.162291 0.496123
vn -0.852950 0.162291 0.496123
vn -0.852950 0.162291 0.496123
vn -0.852950 0.162291 0.496123
vn -0.092971 0.099574 0.990677
vn -0.092971 0.099574 0.990677
vn -0.092971 0.099574 0.990677
vn -0.092971 0.099574 0.990677
vn 0.228834 -0.084257 0.969812
vn 0.228834 -0.084257 0.969812
vn 0.228834 -0.084257 0.969812
vn 0.228834 -0.084257 0.969812
vn 0.865966 -0.359223 0.347939
vn 0.865966 -0.359223 0.347939
vn 0.865966 -0.359223 0.347939
vn 0.865966 -0.359223 0.347939
vn 0.839017 -0.317721 -0.441705
vn 0.839017 -0.317721 -0.441705
vn 0.839017 -0.317721 -0.441705
vn 0.839017 -0.317721 -0.441705
vn 0.261162 0.022280 -0.965038
vn 0.261162 0.022280 -0.965038
vn 0.261162 0.022280 -0.965038
vn 0.261162 0.022280 -0.965038
vn 0.031431 0.148783 -0.988370
vn 0.031431 0.148783 -0.988370
vn 0.031431 0.148783 -0.988370
vn 0.031431 0.148783 -0.988370
vn -0.767469 0.608270 -0.202480
vn -0.767469 0.608270 -0.202480
vn -0.767469 0.608270 -0.202480
vn -0.767469 0.608270 -0.202480
vn -0.637310 0.683446 0.356002
vn -0.637310 0.683446 0.356002
vn -0.637310 0.683446 0.356002
vn -0.637310 0.683446 0.356002
vn -0.083164 0.094007 0.992092
vn -0.083165 0.094007 0.992092
vn -0.083164 0.094007 0.992092
vn -0.083164 0.094007 0.992092
vn 0.241148 -0.090210 0.966287
vn 0.241148 -0.090210 0.966287
vn 0.241148 -0.090210 0.966287
vn 0.241148 -0.090210 0.966287
vn 0.867308 -0.359636 0.344149
vn 0.867308 -0.359636 0.344149
vn 0.867308 -0.359636 0.344149
vn 0.867308 -0.359636 0.344149
vn 0.827918 -0.310292 -0.467194
vn 0.827918 -0.310292 -0.467194
vn 0.827918 -0.310292 -0.467195
vn 0.827918 -0.310292 -0.467194
vn 0.282260 0.010754 -0.959278
vn 0.282260 0.010754 -0.959278
vn 0.282260 0.010754 -0.959278
vn 0.282260 0.010754 -0.959278
vn 0.007899 0.161210 -0.986889
vn 0.007899 0.161210 -0.986889
vn 0.007899 0.161210 -0.986889
vn 0.007899 0.161210 -0.986889
vn -0.544997 0.360368 0.757042
vn -0.544997 0.360368 0.757042
vn -0.544997 0.360368 0.757042
vn -0.544997 0.360368 0.757042
vn -0.077052 0.090534 0.992908
vn -0.077052 0.090534 0.992908
vn -0.077052 0.090534 0.992908
vn -0.077052 0.090534 0.992908
vn 0.248662 -0.093840 0.964034
vn 0.248662 -0.093840 0.964034
vn 0.248662 -0.093840 0.964034
vn 0.248662 -0.093840 0.964034
vn 0.868208 -0.359881 0.341614
vn 0.868208 -0.359881 0.341614
vn 0.868208 -0.359881 0.341614
vn 0.868208 -0.359881 0.341614
vn 0.820167 -0.305191 -0.483927
vn 0.820167 -0.305191 -0.483927
vn 0.820167 -0.305191 -0.483927
vn 0.820167 -0.305191 -0.483927
vn -0.901649 0.290351 -0.320509
vn -0.901649 0.290351 -0.320509
vn -0.901649 0.290351 -0.320509
vn -0.901649 0.290351 -0.320509
vn -0.153020 0.117402 0.981225
vn -0.153020 0.117402 0.981225
vn -0.153020 0.117402 0.981225
vn -0.153020 0.117402 0.981225
vn -0.153020 0.117402 0.981225
vn -0.153020 0.117402 0.981225
vn -0.153020 0.117402 0.981225
vn 0.944190 -0.256454 0.206730
vn 0.944190 -0.256454 0.206730
vn 0.944190 -0.256454 0.206730
vn 0.944190 -0.256454 0.206730
vn 0.599743 -0.413652 -0.684982
vn 0.599743 -0.413652 -0.684982
vn 0.599743 -0.413652 -0.684982
vn 0.599743 -0.413652 -0.684982
vn 0.599743 -0.413652 -0.684982
vn 0.599743 -0.413652 -0.684982
vn -0.927462 0.211125 -0.308612
vn -0.927462 0.211125 -0.308612
vn -0.927462 0.211125 -0.308612
vn -0.927462 0.211125 -0.308612
vn -0.927462 0.211125 -0.308612
vn 0.198298 -0.054623 0.978619
vn 0.198298 -0.054623 0.978619
vn 0.198298 -0.054623 0.978619
vn -0.705068 0.652977 -0.276586
vn -0.705068 0.652977 -0.276587
vn -0.705068 0.652977 -0.276587
vn -0.705068 0.652977 -0.276586
vn 0.825979 -0.554652 -0.100597
vn 0.825979 -0.554652 -0.100597
vn 0.825979 -0.554652 -0.100597
vn 0.825979 -0.554652 -0.100597
vn -0.329672 0.291803 -0.897868
vn -0.329672 0.291803 -0.897868
vn -0.329672 0.291803 -0.897868
vn -0.329672 0.291803 -0.897868
vn -0.329672 0.291804 -0.897868
vn -0.329672 0.291803 -0.897868
vn -0.329672 0.291804 -0.897868
vn -0.329672 0.291803 -0.897868
vn -0.329672 0.291803 -0.897868
vn 0.954339 0.279212 0.106194
vn 0.954339 0.279212 0.106194
vn 0.954339 0.279212 0.106194
vn 0.954339 0.279212 0.106194
vn 0.033520 0.999426 0.005000
vn 0.033520 0.999426 0.005000
vn 0.033520 0.999426 0.005000
vn -0.805391 0.501883 0.315372
vn -0.805390 0.501883 0.315372
vn -0.805390 0.501883 0.315372
vn -0.805390 0.501883 0.315372
vn -0.805390 0.501883 0.315372
vn 0.049970 0.151179 -0.987243
vn 0.049970 0.151179 -0.987243
vn 0.049970 0.151179 -0.987243
vn 0.049970 0.151179 -0.987243
vn 0.000000 1.000000 0.000000
vn 0.000000 1.000000 0.000000
vn 0.000000 1.000000 0.000000
vn 0.000000 1.000000 0.000000
vn -0.412111 0.909837 0.048596
vn -0.412111 0.909837 0.048596
vn -0.412111 0.909837 0.048596
vn -0.412111 0.909837 0.048596
vn 0.130679 0.969156 0.208951
vn 0.130679 0.969156 0.208951
vn 0.130679 0.969156 0.208951
vn 0.130679 0.969156 0.208951
vn 0.898657 -0.437843 0.026635
vn 0.898657 -0.437843 0.026635
vn 0.898657 -0.437843 0.026635
vn 0.898657 -0.437843 0.026635
vn -0.559499 0.786314 0.262050
vn -0.559500 0.786314 0.262050
vn 0.901532 -0.413238 -0.128352
vn 0.901532 -0.413238 -0.128352
vn 0.391848 0.919311 -0.036369
vn 0.391848 0.919311 -0.036369
vn 0.391848 0.919311 -0.036369
vn 0.391848 0.919311 -0.036369
vn 0.000000 -1.000000 0.000000
vn 0.000000 -1.000000 0.000000
vn 0.000000 -1.000000 0.000000
vn 0.000000 -1.000000 0.000000
vn 0.000000 -1.000000 0.000000
vn 0.000000 -1.000000 0.000000
vn 0.000000 -1.000000 0.000000
vn 0.000000 -1.000000 0.000000
vn 0.000000 -1.000000 0.000000
vn 0.000000 -1.000000 0.000000
s off
g Rock14:group1 Rock14:pasted__group Rock14:pasted__pasted__pSphere1 Rock14:pasted__pasted__pSphere1SmoothProxyGroup Rock14:polySurface1
usemtl Rock14:lambert6SG
f 1/42/1 2/46/2 12/47/3 11/43/4
f 2/117/5 3/118/6 13/119/7 12/120/8
f 3/9/9 4/1/10 14/4/11 13/10/12
f 4/1/13 5/2/14 15/3/15 14/4/16
f 5/2/17 6/5/18 16/6/19 15/3/20
f 6/5/21 7/11/22 17/12/23 16/6/24
f 7/121/25 8/122/26 18/123/27 17/124/28
f 8/122/29 9/125/30 19/126/31 18/123/32
f 9/38/33 10/39/34 20/40/35 19/41/36
f 10/39/37 1/42/38 11/43/39 20/40/40
f 11/147/41 12/148/42 22/149/43 21/150/44
f 12/96/45 13/92/46 23/95/47 22/97/48
f 13/92/49 14/93/50 24/94/51 23/95/52
f 14/4/53 15/3/54 25/7/55 24/8/56
f 15/3/57 16/6/58 26/13/59 25/7/60
f 16/132/61 17/124/62 27/128/63 26/133/64
f 17/124/65 18/123/66 28/127/67 27/128/68
f 18/123/69 19/126/70 29/129/71 28/127/72
f 19/41/73 20/40/74 30/44/75 29/45/76
f 20/40/77 11/43/78 21/48/79 30/44/80
f 51/165/81 52/164/82 32/166/83 31/167/84
f 52/164/85 53/159/86 33/168/87 32/166/88
f 54/68/89 55/69/90 35/65/91 34/64/92
f 55/17/93 56/20/94 36/27/95 35/28/96
f 56/20/97 57/26/98 37/31/99 36/27/100
f 57/139/101 58/138/102 38/141/103 37/142/104
f 58/138/105 59/140/106 39/143/107 38/141/108
f 59/56/109 60/55/110 40/58/111 39/59/112
f 60/55/113 51/57/114 31/60/115 40/58/116
f 31/167/117 32/166/118 42/169/119 41/170/120
f 32/166/121 33/168/122 43/171/123 42/169/124
f 33/70/125 34/64/126 44/67/127 43/71/128
f 34/64/129 35/65/130 45/66/131 44/67/132
f 35/28/133 36/27/134 46/32/135 45/33/136
f 92/173/137 93/174/138 94/175/139 95/176/140
f 37/142/141 38/141/142 48/144/143 47/145/144
f 38/141/145 39/143/146 49/146/147 48/144/148
f 39/59/149 40/58/150 50/61/151 49/62/152
f 40/58/153 31/60/154 41/63/155 50/61/156
f 34/64/157 33/70/158 53/72/159 54/68/160
f 47/36/161 44/37/162 45/33/163 46/32/164
f 61/156/165 62/155/166 52/164/167 51/165/168
f 62/155/169 63/160/170 53/159/171 52/164/172
f 55/17/173 25/7/174 26/13/175 73/18/176 64/19/177 56/20/178
f 64/19/179 65/25/180 57/26/181 56/20/182
f 65/136/183 66/135/184 58/138/185 57/139/186
f 66/135/187 67/137/188 59/140/189 58/138/190
f 67/53/191 68/52/192 60/55/193 59/56/194
f 68/52/195 61/54/196 51/57/197 60/55/198
f 69/152/199 70/151/200 62/155/201 61/156/202
f 70/151/203 71/154/204 63/160/205 62/155/206
f 87/30/207 88/29/208 84/34/209 85/35/210
f 73/18/211 74/24/212 65/25/213 64/19/214
f 74/131/215 75/130/216 66/135/217 65/136/218
f 75/130/219 76/134/220 67/137/221 66/135/222
f 76/50/223 77/49/224 68/52/225 67/53/226
f 77/49/227 69/51/228 61/54/229 68/52/230
f 21/150/231 22/149/232 70/151/233 69/152/234
f 22/149/235 23/153/236 71/154/237 70/151/238
f 26/13/239 27/23/240 74/24/241 73/18/242
f 27/128/243 28/127/244 75/130/245 74/131/246
f 28/127/247 29/129/248 76/134/249 75/130/250
f 29/45/251 30/44/252 77/49/253 76/50/254
f 30/44/255 21/48/256 69/51/257 77/49/258
f 78/15/259 79/14/260 83/21/261 82/22/262
f 79/177/263 86/178/264 80/179/265 89/180/266 84/181/267 88/182/268 83/183/269
f 89/73/270 90/74/271 85/75/272 84/76/273
f 81/78/274 78/79/275 82/80/276 87/81/277 85/75/278 90/74/279
f 25/7/280 79/14/281 78/15/282 72/16/283 24/8/284
f 25/184/285 86/178/286 79/177/287
f 82/22/288 83/21/289 88/29/290 87/30/291
f 89/73/292 91/77/293 81/78/294 90/74/295
f 81/157/296 54/158/297 53/159/298 63/160/299 71/154/300 23/153/301 24/161/302 72/162/303 78/163/304
f 91/77/305 55/82/306 54/83/307 81/78/308
f 80/98/309 91/99/310 89/100/311
f 86/189/312 25/190/313 55/191/314 91/192/315 80/193/316
f 42/169/317 43/171/318 44/172/319 41/170/320
f 41/101/321 48/102/322 49/103/323 50/104/324
f 41/101/325 44/105/326 47/106/327 48/102/328
f 36/185/329 37/186/330 93/187/331 92/188/332
f 37/84/333 47/85/334 94/86/335 93/87/336
f 47/194/337 46/195/338 95/196/339 94/197/340
f 46/88/341 36/89/342 92/90/343 95/91/344
f 4/107/345 3/108/346 2/109/347 1/110/348 10/111/349 9/112/350 8/113/351 7/114/352 6/115/353 5/116/354
