# This file uses centimeters as units for non-parametric coordinates.

mtllib SpikeRock3.mtl
g SpikeRock3:default1
v 3.044746 -4.736325 3.210287
v 4.926502 -3.071495 1.226220
v 6.073623 -1.013652 -1.226221
v 4.191867 1.025122 -3.655938
v 0.000000 1.661030 -4.413784
v -3.250357 1.316180 -4.002806
v -5.676344 -0.348650 -2.018740
v -5.470732 -3.071495 1.226221
v -4.602474 -5.217744 3.784020
v -1.557729 -5.853652 4.541866
v 2.892268 -3.479261 4.006706
v 4.682986 -1.894498 2.118059
v 5.830107 0.062627 -0.214351
v 4.042847 2.023116 -2.550771
v -0.006425 2.619329 -3.261310
v -3.107761 2.305602 -2.887424
v -5.440207 0.724178 -1.002757
v -5.234595 -1.897950 2.122173
v -4.453454 -4.334051 5.025405
v -1.560125 -4.942032 5.749969
v 1.222120 0.342210 7.285290
v 1.889184 1.560435 6.292585
v 2.761833 2.014814 5.033319
v 2.707224 4.158770 4.252559
v -1.501087 3.605087 2.042404
v -4.994127 3.026104 2.835660
v -5.600517 2.239587 4.356783
v -4.177116 0.630422 6.105506
v -3.705069 0.244981 8.403267
v -1.239903 -0.651628 8.224261
v 0.152975 3.203030 11.282642
v 2.635232 4.515108 10.504620
v 2.894991 6.623763 9.171640
v 0.406710 7.877340 8.310187
v -1.454260 8.320005 7.929577
v -4.053817 7.766720 7.975948
v -5.419180 5.931645 9.073699
v -5.585156 3.945915 10.358091
v -3.503106 2.824826 11.571677
v -1.714199 2.382159 11.952287
v -2.774738 8.395777 32.439224
v -2.343688 9.179453 32.808083
v -2.313398 10.430243 33.353977
v -2.552886 10.751341 33.508156
v -2.941404 10.879233 33.548046
v -3.329727 10.765720 33.459137
v -4.490514 10.145502 33.192757
v -4.860377 8.191020 35.244968
v -4.708459 5.455097 36.375816
v -3.923885 7.376551 35.246563
v -2.212122 9.776680 34.366795
v -3.148614 10.445380 34.572910
v -3.612968 7.874753 32.367165
v -4.247025 8.326696 32.675137
v -4.555358 9.597088 32.969952
v -3.439527 11.143365 18.039440
v -5.177050 9.829725 17.805370
v -4.916637 7.977451 18.213507
v -4.145788 7.132346 18.177084
v -2.766394 6.166556 17.703682
v -1.688523 6.803101 17.490700
v 1.122374 8.095412 17.956526
v 1.280259 10.291150 18.897083
v -0.714931 11.187230 19.101692
v -1.985769 11.584090 18.987329
v -3.389644 12.802011 25.791039
v -2.440080 13.116736 26.274734
v -1.656191 12.848680 26.239357
v -1.144956 12.279637 25.908689
v -1.244873 10.780552 24.819298
v -2.233792 9.691529 24.221870
v -3.151001 9.091614 24.183273
v -4.191781 9.848490 24.693331
v -4.752505 10.794692 24.969490
v -4.865150 11.883393 25.317877
vt 0.000000 0.500000
vt 0.100000 0.500000
vt 0.200000 0.500000
vt 0.300000 0.500000
vt 0.400000 0.500000
vt 0.500000 0.500000
vt 0.600000 0.500000
vt 0.700000 0.500000
vt 0.800000 0.500000
vt 0.900000 0.500000
vt 1.000000 0.500000
vt 0.000000 0.600000
vt 0.100000 0.600000
vt 0.200000 0.600000
vt 0.300000 0.600000
vt 0.400000 0.600000
vt 0.500000 0.600000
vt 0.600000 0.600000
vt 0.700000 0.600000
vt 0.800000 0.600000
vt 0.900000 0.600000
vt 1.000000 0.600000
vt 0.000000 0.700000
vt 0.100000 0.700000
vt 0.200000 0.700000
vt 0.300000 0.700000
vt 0.400000 0.700000
vt 0.500000 0.700000
vt 0.600000 0.700000
vt 0.700000 0.700000
vt 0.800000 0.700000
vt 0.900000 0.700000
vt 1.000000 0.700000
vt 0.000000 0.800000
vt 0.100000 0.800000
vt 0.200000 0.800000
vt 0.300000 0.800000
vt 0.400000 0.800000
vt 0.500000 0.800000
vt 0.600000 0.800000
vt 0.700000 0.800000
vt 0.800000 0.800000
vt 0.900000 0.800000
vt 1.000000 0.800000
vt 0.000000 0.900000
vt 0.100000 0.900000
vt 0.200000 0.900000
vt 0.300000 0.900000
vt 0.400000 0.900000
vt 0.500000 0.900000
vt 0.600000 0.900000
vt 0.700000 0.900000
vt 0.800000 0.900000
vt 0.900000 0.900000
vt 1.000000 0.900000
vt 0.550000 0.900000
vt 0.550000 0.900000
vt 0.900000 0.869313
vt 0.800000 0.869596
vt 0.700000 0.858185
vt 0.500000 0.873310
vt 0.600000 0.871992
vt 0.700000 0.832525
vt 0.800000 0.849439
vt 0.900000 0.848633
vt 1.000000 0.868583
vt 0.000000 0.868583
vt 0.100000 0.867844
vt 0.200000 0.877100
vt 0.300000 0.879392
vt 0.400000 0.878877
vt 0.500000 0.885436
vt 0.400000 0.888473
vt 0.300000 0.888755
vt 0.200000 0.887504
vt 0.100000 0.882453
vt 1.000000 0.882856
vt 0.000000 0.882856
vt 0.900000 0.858028
vt 0.800000 0.858597
vt 0.700000 0.844183
vt 0.600000 0.884717
vn 0.798562 -0.249890 0.547589
vn 0.798562 -0.249890 0.547589
vn 0.798562 -0.249890 0.547589
vn 0.798562 -0.249890 0.547589
vn 0.927771 -0.102581 0.358772
vn 0.927771 -0.102581 0.358772
vn 0.927771 -0.102581 0.358772
vn 0.927771 -0.102581 0.358772
vn 0.849984 0.446384 -0.279765
vn 0.849984 0.446384 -0.279765
vn 0.849984 0.446384 -0.279765
vn 0.849984 0.446384 -0.279765
vn 0.223424 0.744200 -0.629482
vn 0.223424 0.744200 -0.629482
vn 0.223424 0.744200 -0.629482
vn 0.223424 0.744200 -0.629482
vn -0.157001 0.753852 -0.638010
vn -0.157001 0.753852 -0.638010
vn -0.157001 0.753853 -0.638010
vn -0.157001 0.753853 -0.638010
vn -0.718131 0.559531 -0.413778
vn -0.718131 0.559531 -0.413778
vn -0.718131 0.559531 -0.413778
vn -0.718131 0.559531 -0.413778
vn -0.986303 0.089352 0.138649
vn -0.986303 0.089352 0.138649
vn -0.986303 0.089352 0.138649
vn -0.986303 0.089352 0.138649
vn -0.969122 -0.065532 0.237716
vn -0.969122 -0.065532 0.237716
vn -0.969122 -0.065532 0.237716
vn -0.969122 -0.065532 0.237716
vn -0.302774 -0.759968 0.575131
vn -0.302774 -0.759968 0.575131
vn -0.302774 -0.759968 0.575131
vn -0.302774 -0.759968 0.575131
vn 0.405153 -0.604791 0.685623
vn 0.405153 -0.604791 0.685623
vn 0.405153 -0.604791 0.685623
vn 0.405153 -0.604791 0.685623
vn 0.804688 -0.104888 0.584360
vn 0.804688 -0.104888 0.584360
vn 0.804688 -0.104888 0.584360
vn 0.804688 -0.104888 0.584360
vn 0.858805 0.041246 0.510640
vn 0.858805 0.041246 0.510640
vn 0.858805 0.041246 0.510640
vn 0.858805 0.041246 0.510640
vn 0.856781 0.494799 0.145259
vn 0.856781 0.494799 0.145259
vn 0.856781 0.494799 0.145259
vn 0.856781 0.494799 0.145259
vn 0.086261 0.969415 -0.229767
vn 0.086261 0.969415 -0.229767
vn 0.086261 0.969415 -0.229767
vn 0.086261 0.969415 -0.229767
vn -0.166169 0.965529 -0.200354
vn -0.166169 0.965529 -0.200354
vn -0.166169 0.965529 -0.200354
vn -0.166169 0.965529 -0.200354
vn -0.770286 0.582399 -0.259751
vn -0.770286 0.582399 -0.259751
vn -0.770286 0.582399 -0.259751
vn -0.770286 0.582399 -0.259751
vn -0.969345 -0.177491 0.169905
vn -0.969345 -0.177491 0.169905
vn -0.969345 -0.177491 0.169905
vn -0.969345 -0.177491 0.169905
vn -0.971824 0.002816 0.235691
vn -0.971824 0.002816 0.235691
vn -0.971824 0.002816 0.235691
vn -0.971824 0.002816 0.235691
vn -0.229074 -0.516710 0.824946
vn -0.229074 -0.516710 0.824946
vn -0.229074 -0.516710 0.824946
vn -0.229074 -0.516710 0.824946
vn 0.458614 -0.462018 0.759087
vn 0.458614 -0.462018 0.759087
vn 0.458614 -0.462018 0.759087
vn 0.458614 -0.462018 0.759087
vn 0.699914 -0.569527 0.430997
vn 0.699914 -0.569527 0.430997
vn 0.699914 -0.569527 0.430997
vn 0.699914 -0.569527 0.430997
vn 0.951055 -0.272154 0.146376
vn 0.951055 -0.272154 0.146376
vn 0.951055 -0.272154 0.146376
vn 0.951055 -0.272154 0.146376
vn 0.240218 0.766524 -0.595597
vn 0.240218 0.766524 -0.595597
vn 0.240218 0.766524 -0.595597
vn 0.240218 0.766524 -0.595597
vn -0.225086 0.749525 -0.622534
vn -0.225086 0.749525 -0.622534
vn -0.225086 0.749525 -0.622534
vn -0.225086 0.749525 -0.622534
vn -0.877229 0.409522 -0.250520
vn -0.877229 0.409522 -0.250520
vn -0.877229 0.409522 -0.250520
vn -0.877229 0.409522 -0.250520
vn -0.959866 -0.269111 0.078972
vn -0.959866 -0.269111 0.078972
vn -0.959866 -0.269111 0.078972
vn -0.959866 -0.269111 0.078972
vn -0.766616 -0.557613 0.318383
vn -0.766616 -0.557613 0.318383
vn -0.766616 -0.557613 0.318383
vn -0.766616 -0.557613 0.318383
vn -0.265545 -0.752812 0.602296
vn -0.265545 -0.752812 0.602296
vn -0.265545 -0.752812 0.602296
vn -0.265545 -0.752812 0.602296
vn 0.488664 -0.643787 0.588851
vn 0.488664 -0.643787 0.588851
vn 0.488664 -0.643787 0.588851
vn 0.488664 -0.643787 0.588851
vn 0.402266 -0.783689 0.473302
vn 0.401112 -0.789613 0.464350
vn 0.630566 -0.747115 0.210250
vn 0.523607 -0.791390 0.315496
vn 0.963968 -0.110211 0.242113
vn 0.920417 -0.207000 0.331637
vn 0.967952 -0.160927 0.192797
vn 0.920910 -0.231335 0.313703
vn 0.454293 0.864761 -0.214023
vn 0.461754 0.866477 -0.189741
vn 0.677542 0.730869 0.082268
vn 0.561602 0.826500 -0.038735
vn 0.293720 0.926555 -0.234998
vn 0.294763 0.927171 -0.231232
vn 0.323635 0.946025 0.017262
vn 0.321659 0.946580 -0.022825
vn -0.171456 0.951961 -0.253719
vn -0.167062 0.944531 -0.282757
vn -0.236191 0.966720 -0.098319
vn -0.294124 0.955540 0.020846
vn -0.631977 0.747240 -0.205516
vn -0.673905 0.707663 -0.212286
vn -0.543809 0.837954 -0.045887
vn -0.545485 0.837271 0.037737
vn -0.996612 -0.052138 0.063610
vn -0.997537 -0.035032 0.060775
vn -0.992918 -0.100930 0.062672
vn -0.995699 -0.077970 0.050053
vn -0.684933 -0.647343 0.334385
vn -0.655118 -0.662232 0.363688
vn -0.858219 -0.499745 0.117108
vn -0.900187 -0.433837 0.038077
vn -0.412674 -0.821499 0.393497
vn -0.371231 -0.813397 0.447854
vn -0.522840 -0.831700 0.186852
vn -0.582348 -0.812607 0.023252
vn 0.505461 -0.719368 0.476466
vn 0.505608 -0.720268 0.474947
vn 0.542357 -0.830446 0.127309
vn 0.540594 -0.826455 0.157261
vn 0.828740 0.487019 -0.275684
vn 0.828740 0.487019 -0.275684
vn 0.828740 0.487019 -0.275684
vn 0.828740 0.487019 -0.275684
vn -0.331484 0.891017 0.310173
vn -0.331484 0.891017 0.310173
vn -0.331484 0.891017 0.310173
vn 0.831606 -0.536926 0.141923
vn 0.831606 -0.536926 0.141923
vn 0.831606 -0.536926 0.141923
vn 0.831606 -0.536926 0.141923
vn 0.256527 0.218050 0.941620
vn 0.256527 0.218050 0.941620
vn 0.256527 0.218050 0.941620
vn 0.256527 0.218050 0.941620
vn 0.256527 0.218050 0.941620
vn 0.995842 0.015094 -0.089839
vn 0.995842 0.015094 -0.089839
vn 0.995842 0.015094 -0.089839
vn -0.602718 0.664616 0.441607
vn -0.602718 0.664616 0.441607
vn -0.602718 0.664616 0.441607
vn -0.602718 0.664616 0.441607
vn 0.594821 0.671080 0.442538
vn 0.594821 0.671080 0.442538
vn 0.594821 0.671080 0.442538
vn 0.594821 0.671080 0.442538
vn 0.594821 0.671080 0.442538
vn 0.000000 -0.766044 -0.642788
vn 0.000000 -0.766044 -0.642788
vn 0.000000 -0.766044 -0.642788
vn 0.000000 -0.766044 -0.642788
vn 0.000000 -0.766044 -0.642788
vn 0.000000 -0.766044 -0.642788
vn 0.000000 -0.766044 -0.642788
vn 0.000000 -0.766044 -0.642788
vn 0.000000 -0.766044 -0.642788
vn 0.000000 -0.766044 -0.642788
vn 0.538709 -0.837221 -0.094098
vn 0.539039 -0.836979 -0.094353
vn 0.531310 -0.842552 -0.088410
vn -0.376897 -0.895248 -0.237655
vn -0.502013 -0.842008 -0.197497
vn 0.472741 -0.805611 -0.357082
vn 0.472741 -0.805611 -0.357082
vn -0.949847 -0.291120 -0.114195
vn -0.951572 -0.281453 -0.123672
vn -0.958280 -0.159574 -0.237141
vn -0.958280 -0.159574 -0.237141
vn -0.999504 -0.022911 0.021620
vn -0.999514 -0.022607 0.021487
vn -0.989452 0.136592 -0.048240
vn -0.724318 0.653453 -0.219917
vn -0.724317 0.653453 -0.219917
vn -0.673905 0.707663 -0.212286
vn -0.631977 0.747240 -0.205516
vn -0.998488 -0.000325 0.054974
vn -0.998488 -0.000325 0.054974
vn -0.997537 -0.035032 0.060775
vn -0.996612 -0.052138 0.063610
vn -0.626204 -0.674920 0.390322
vn -0.626204 -0.674920 0.390322
vn -0.655118 -0.662232 0.363688
vn -0.684933 -0.647343 0.334385
vn -0.344383 -0.806361 0.480814
vn -0.344383 -0.806361 0.480814
vn -0.371231 -0.813397 0.447854
vn -0.412674 -0.821499 0.393497
vn 0.497743 -0.678974 0.539672
vn 0.497743 -0.678974 0.539672
vn 0.505608 -0.720268 0.474947
vn 0.505461 -0.719368 0.476466
vn 0.405618 -0.764279 0.501349
vn 0.405618 -0.764280 0.501349
vn 0.401112 -0.789613 0.464350
vn 0.402266 -0.783689 0.473302
vn 0.974917 -0.075506 0.209368
vn 0.974917 -0.075506 0.209368
vn 0.920417 -0.207000 0.331637
vn 0.963968 -0.110211 0.242113
vn 0.447992 0.862948 -0.233717
vn 0.447992 0.862948 -0.233717
vn 0.461754 0.866477 -0.189741
vn 0.454293 0.864761 -0.214023
vn 0.287829 0.922862 -0.255892
vn 0.287829 0.922862 -0.255892
vn 0.294763 0.927171 -0.231232
vn 0.293720 0.926555 -0.234998
vn -0.165114 0.941051 -0.295229
vn -0.165114 0.941051 -0.295229
vn -0.167062 0.944531 -0.282757
vn -0.171456 0.951961 -0.253719
vn -0.294124 0.955540 0.020846
vn -0.236191 0.966720 -0.098319
vn -0.388437 0.888916 0.242787
vn -0.388437 0.888916 0.242787
vn 0.321659 0.946580 -0.022825
vn 0.323635 0.946025 0.017262
vn 0.322517 0.898184 0.298744
vn 0.322517 0.898184 0.298744
vn 0.561602 0.826500 -0.038735
vn 0.677542 0.730869 0.082268
vn 0.803198 0.537473 0.256895
vn 0.803198 0.537473 0.256895
vn 0.920910 -0.231335 0.313703
vn 0.967952 -0.160927 0.192797
vn 0.985993 -0.117235 0.118632
vn 0.985993 -0.117235 0.118632
vn 0.523607 -0.791390 0.315496
vn 0.630566 -0.747115 0.210250
vn 0.802810 -0.595700 -0.025252
vn 0.802810 -0.595700 -0.025252
vn 0.540594 -0.826455 0.157261
vn 0.542357 -0.830446 0.127309
vn 0.539039 -0.836979 -0.094353
vn 0.538709 -0.837221 -0.094098
vn -0.582348 -0.812607 0.023252
vn -0.522840 -0.831700 0.186852
vn -0.502013 -0.842008 -0.197497
vn -0.376897 -0.895248 -0.237655
vn -0.900187 -0.433837 0.038077
vn -0.858219 -0.499745 0.117108
vn -0.951572 -0.281453 -0.123672
vn -0.949847 -0.291120 -0.114195
vn -0.995699 -0.077970 0.050053
vn -0.992918 -0.100930 0.062672
vn -0.999514 -0.022607 0.021487
vn -0.999504 -0.022911 0.021620
vn -0.545485 0.837271 0.037737
vn -0.543809 0.837954 -0.045887
vn -0.536452 0.816538 0.213272
vn -0.536452 0.816538 0.213272
s off
g SpikeRock3:group3 SpikeRock3:pasted__group SpikeRock3:pasted__pasted__pSphere1 SpikeRock3:pasted__pasted__pSphere1SmoothProxyGroup SpikeRock3:polySurface1
usemtl SpikeRock3:lambert4SG
f 1/1/1 2/2/2 12/13/3 11/12/4
f 2/2/5 3/3/6 13/14/7 12/13/8
f 3/3/9 4/4/10 14/15/11 13/14/12
f 4/4/13 5/5/14 15/16/15 14/15/16
f 5/5/17 6/6/18 16/17/19 15/16/20
f 6/6/21 7/7/22 17/18/23 16/17/24
f 7/7/25 8/8/26 18/19/27 17/18/28
f 8/8/29 9/9/30 19/20/31 18/19/32
f 9/9/33 10/10/34 20/21/35 19/20/36
f 10/10/37 1/11/38 11/22/39 20/21/40
f 11/12/41 12/13/42 22/24/43 21/23/44
f 12/13/45 13/14/46 23/25/47 22/24/48
f 13/14/49 14/15/50 24/26/51 23/25/52
f 14/15/53 15/16/54 25/27/55 24/26/56
f 15/16/57 16/17/58 26/28/59 25/27/60
f 16/17/61 17/18/62 27/29/63 26/28/64
f 17/18/65 18/19/66 28/30/67 27/29/68
f 18/19/69 19/20/70 29/31/71 28/30/72
f 19/20/73 20/21/74 30/32/75 29/31/76
f 20/21/77 11/22/78 21/33/79 30/32/80
f 21/23/81 22/24/82 32/35/83 31/34/84
f 22/24/85 23/25/86 33/36/87 32/35/88
f 24/26/89 25/27/90 35/38/91 34/37/92
f 25/27/93 26/28/94 36/39/95 35/38/96
f 26/28/97 27/29/98 37/40/99 36/39/100
f 27/29/101 28/30/102 38/41/103 37/40/104
f 28/30/105 29/31/106 39/42/107 38/41/108
f 29/31/109 30/32/110 40/43/111 39/42/112
f 30/32/113 21/33/114 31/44/115 40/43/116
f 61/67/117 62/68/118 70/76/119 71/78/120
f 62/68/121 63/69/122 69/75/123 70/76/124
f 63/69/125 64/70/126 68/74/127 69/75/128
f 64/70/129 65/71/130 67/73/131 68/74/132
f 65/71/133 56/61/134 66/72/135 67/73/136
f 56/61/137 57/62/138 75/82/139 66/72/140
f 57/62/141 58/63/142 74/81/143 75/82/144
f 58/63/145 59/64/146 73/80/147 74/81/148
f 59/64/149 60/65/150 72/79/151 73/80/152
f 60/65/153 61/66/154 71/77/155 72/79/156
f 34/37/157 33/36/158 23/25/159 24/26/160
f 46/50/161 52/57/162 45/49/163
f 42/46/164 51/56/165 50/54/166 41/45/167
f 50/54/168 51/56/169 52/57/170 48/52/171 49/53/172
f 42/46/173 43/47/174 51/56/175
f 48/52/176 52/57/177 46/50/178 47/51/179
f 52/57/180 51/56/181 43/47/182 44/48/183 45/49/184
f 5/5/185 4/4/186 3/3/187 2/2/188 1/11/189 10/10/190 9/9/191 8/8/192 7/7/193 6/6/194
f 53/58/195 41/55/196 50/54/197
f 54/59/198 53/58/199 50/54/200 49/53/201
f 55/60/202 54/59/203 49/53/204 48/52/205
f 47/51/206 55/60/207 48/52/208
f 36/39/209 37/40/210 57/62/211 56/61/212
f 37/40/213 38/41/214 58/63/215 57/62/216
f 38/41/217 39/42/218 59/64/219 58/63/220
f 39/42/221 40/43/222 60/65/223 59/64/224
f 40/43/225 31/44/226 61/66/227 60/65/228
f 31/34/229 32/35/230 62/68/231 61/67/232
f 32/35/233 33/36/234 63/69/235 62/68/236
f 33/36/237 34/37/238 64/70/239 63/69/240
f 34/37/241 35/38/242 65/71/243 64/70/244
f 35/38/245 36/39/246 56/61/247 65/71/248
f 67/73/249 66/72/250 46/50/251 45/49/252
f 68/74/253 67/73/254 45/49/255 44/48/256
f 69/75/257 68/74/258 44/48/259 43/47/260
f 70/76/261 69/75/262 43/47/263 42/46/264
f 71/78/265 70/76/266 42/46/267 41/45/268
f 72/79/269 71/77/270 41/55/271 53/58/272
f 73/80/273 72/79/274 53/58/275 54/59/276
f 74/81/277 73/80/278 54/59/279 55/60/280
f 75/82/281 74/81/282 55/60/283 47/51/284
f 66/72/285 75/82/286 47/51/287 46/50/288
